PathFileType	4	(X/Y/Z)	/Users/itak/Documents/Research/Walk-IL/dataset/trc/00280_00010.trc
DataRate	CameraRate	NumFrames	NumMarkers	Units	OrigDataRate	OrigDataStartFrame	OrigNumFrames
100.000000	100.000000	4	53	mm	100.000000	154	616
Frame#	Time	RPSI			LPSI			L3			STRN			T10			C7			CLAV			RBAK			LBAK			LSHO			LUPA			LAEL			LAOL			LWTS			LWPS			LFRA			LIFD			LHPS			LHTS			RSHO			RUPA			RAEL			RAOL			RWTS			RWPS			RFRA			RIFD			RHTS			RHPS			RBHD			LFHD			RFHD			LBHD			LHIP			RASI			LASI			LKNE			LTHI			LANK			LTIP			LTOE			LMT1			LMT5			LHEE			RKNE			RANK			RTIP			RTOE			RMT1			RMT5			RHEE			RHIP			RTHI			
		X1	Y1	Z1	X2	Y2	Z2	X3	Y3	Z3	X4	Y4	Z4	X5	Y5	Z5	X6	Y6	Z6	X7	Y7	Z7	X8	Y8	Z8	X9	Y9	Z9	X10	Y10	Z10	X11	Y11	Z11	X12	Y12	Z12	X13	Y13	Z13	X14	Y14	Z14	X15	Y15	Z15	X16	Y16	Z16	X17	Y17	Z17	X18	Y18	Z18	X19	Y19	Z19	X20	Y20	Z20	X21	Y21	Z21	X22	Y22	Z22	X23	Y23	Z23	X24	Y24	Z24	X25	Y25	Z25	X26	Y26	Z26	X27	Y27	Z27	X28	Y28	Z28	X29	Y29	Z29	X30	Y30	Z30	X31	Y31	Z31	X32	Y32	Z32	X33	Y33	Z33	X34	Y34	Z34	X35	Y35	Z35	X36	Y36	Z36	X37	Y37	Z37	X38	Y38	Z38	X39	Y39	Z39	X40	Y40	Z40	X41	Y41	Z41	X42	Y42	Z42	X43	Y43	Z43	X44	Y44	Z44	X45	Y45	Z45	X46	Y46	Z46	X47	Y47	Z47	X48	Y48	Z48	X49	Y49	Z49	X50	Y50	Z50	X51	Y51	Z51	X52	Y52	Z52	X53	Y53	Z53	

155	1.54	1057.638427734375	966.719970703125	611.8482055664062	888.4141845703125	933.60107421875	587.4398193359375	983.0908813476562	1020.220947265625	583.008056640625	973.5409545898438	1182.770629882812	328.1317138671875	987.4873657226562	1136.226928710938	595.0225830078125	953.4706420898438	1377.354370117188	540.2824096679688	960.8295288085938	1284.683471679688	386.1776123046875	1043.236938476562	1248.989501953125	594.0462646484375	855.1697998046875	1333.901977539062	565.1414184570312	796.3379516601562	1330.394897460938	475.0477905273438	737.5307006835938	1213.770629882812	527.7047119140625	748.9625854492188	1012.914001464844	564.0601196289062	822.7816162109375	1015.39404296875	608.7543334960938	789.0885009765625	791.3429565429688	487.7661743164062	752.4286499023438	774.0490112304688	547.970703125	748.8081665039062	906.8462524414062	564.3170776367188	824.2217407226562	608.1746826171875	488.4416198730469	771.7188110351562	687.106201171875	545.1810302734375	777.3172607421875	689.0997314453125	479.633056640625	1108.173828125	1362.310302734375	464.7540893554688	1179.404052734375	1311.774536132812	468.4562377929688	1285.480346679688	1064.147827148438	455.5343017578125	1202.6748046875	1031.662475585938	488.754150390625	1273.182739257812	881.7101440429688	289.6460571289062	1346.660888671875	875.2706298828125	332.361328125	1310.545043945312	1009.589965820312	417.7319030761719	1303.013305664062	716.3970336914062	219.9034729003906	1312.7138671875	792.9219970703125	218.0819091796875	1363.344116210938	782.7341918945312	267.4690856933594	1028.322143554688	1539.676513671875	484.9151916503906	872.8713989257812	1555.001098632812	340.0123291015625	963.8063354492188	1557.47607421875	321.6878356933594	885.5476684570312	1526.583862304688	514.0352783203125	811.4026489257812	877.3341674804688	504.3160705566406	1132.343017578125	909.1730346679688	400.8257141113281	880.3890380859375	891.8744506835938	377.0692443847656	885.5859985351562	459.5311889648438	289.1759338378906	845.642578125	580.2898559570312	355.6453857421875	951.53857421875	31.18652153015137	196.6405334472656	908.5664672851562	234.6403656005859	247.6578521728516	969.2201538085938	86.44562530517578	-9.521309852600098	1020.326721191406	55.80486679077148	43.88053894042969	915.3648071289062	58.06914520263672	79.03913116455078	1016.450134277344	12.51736068725586	221.3091888427734	1164.937133789062	460.1497192382812	625.0880126953125	1140.048217773438	57.14643859863281	834.9127807617188	1156.096435546875	338.7708129882812	658.9927368164062	1113.258422851562	32.49143981933594	638.4458618164062	1064.897216796875	35.00767135620117	690.181396484375	1173.186401367188	29.75778198242188	738.2910766601562	1085.2109375	64.84228515625	883.4995727539062	1179.12109375	918.7437133789062	532.6011352539062	1192.870849609375	706.638916015625	523.5798950195312	
156	1.55	1057.924194335938	965.669677734375	599.4544677734375	888.314697265625	933.2188110351562	576.496337890625	982.8713989257812	1018.72412109375	571.5071411132812	971.6382446289062	1181.9169921875	317.5005493164062	987.0698852539062	1134.525024414062	583.9735717773438	952.1617431640625	1376.00732421875	530.6409912109375	958.945556640625	1283.576293945312	375.9483337402344	1042.14013671875	1247.401611328125	583.4466552734375	853.9877319335938	1331.9921875	555.81396484375	794.7669067382812	1328.549926757812	466.012939453125	736.9053955078125	1211.253662109375	518.6837768554688	749.8529052734375	1010.596557617188	554.775146484375	824.0742797851562	1013.030395507812	598.0097045898438	788.0416870117188	787.3739624023438	481.7962036132812	753.4536743164062	770.95556640625	543.6710205078125	749.7442626953125	904.2078247070312	557.0928955078125	823.5923461914062	604.1265258789062	485.1455688476562	773.4119873046875	684.0484008789062	542.309326171875	777.016357421875	684.8307495117188	476.3606262207031	1106.68994140625	1361.306884765625	454.4883728027344	1177.964111328125	1310.640380859375	458.1140747070312	1283.382202148438	1062.737182617188	446.2174987792969	1200.486694335938	1030.484985351562	479.3820190429688	1269.063598632812	880.9921264648438	279.7168273925781	1343.032836914062	874.0517578125	321.8126831054688	1308.027221679688	1008.161254882812	407.9881896972656	1297.829956054688	716.0410766601562	208.6058959960938	1307.959594726562	792.5830688476562	207.2657623291016	1358.836181640625	781.8156127929688	256.2452087402344	1026.5400390625	1538.9326171875	474.7196960449219	870.0584106445312	1553.937377929688	330.8597412109375	960.86181640625	1556.51708984375	311.8996276855469	884.005126953125	1525.654296875	504.8345642089844	810.7196655273438	876.923095703125	494.2461242675781	1131.130737304688	907.6297607421875	387.8596496582031	878.8936767578125	890.6868896484375	366.1326293945312	884.0977172851562	459.2010192871094	278.212158203125	844.1127319335938	579.9077758789062	344.8517150878906	952.38916015625	31.53747940063477	194.9671020507812	908.484130859375	233.3757781982422	239.9632873535156	968.8146362304688	76.85598754882812	-14.32153797149658	1020.062255859375	48.4984245300293	40.42683029174805	915.581787109375	53.30587005615234	76.23863220214844	1017.812744140625	14.37612152099609	220.1026000976562	1165.279418945312	459.8316040039062	614.9495239257812	1141.669311523438	60.88582611083984	833.4080810546875	1156.64794921875	338.9469909667969	651.175048828125	1113.286743164062	32.52520751953125	638.2178955078125	1065.197021484375	35.78666687011719	689.8460083007812	1173.995971679688	30.45178413391113	737.3359985351562	1087.1884765625	70.39627838134766	882.1215209960938	1178.643188476562	917.3575439453125	519.3849487304688	1192.516845703125	705.5076904296875	511.3807678222656	
157	1.56	1058.415283203125	964.968017578125	586.7029418945312	888.30712890625	933.46044921875	565.5205688476562	982.712158203125	1017.659484863281	559.810546875	969.4680786132812	1181.557861328125	306.7644348144531	986.6248779296875	1133.2119140625	572.7836303710938	950.7549438476562	1375.071899414062	520.9719848632812	956.880615234375	1282.9677734375	365.6641540527344	1040.94921875	1246.212524414062	572.7286987304688	852.71875	1330.50439453125	546.4754638671875	793.074951171875	1327.151733398438	456.9804992675781	736.0711059570312	1209.198364257812	509.5580444335938	750.284423828125	1008.744689941406	545.1038208007812	824.8443603515625	1011.022888183594	587.05078125	787.2327270507812	783.9299926757812	475.6884765625	753.7884521484375	768.5320434570312	538.5169677734375	750.1415405273438	902.17529296875	549.2560424804688	822.6065063476562	600.5687866210938	482.2047729492188	774.0343627929688	681.6597290039062	538.8264770507812	776.8463745117188	681.2188110351562	472.7254028320312	1105.082275390625	1360.767211914062	444.1691589355469	1176.384765625	1309.942626953125	447.7113952636719	1280.910278320312	1061.676025390625	437.0888366699219	1197.825927734375	1029.723510742188	470.0347595214844	1264.810180664062	880.3820190429688	270.1917114257812	1339.178955078125	872.9382934570312	311.8815002441406	1305.189575195312	1007.001586914062	398.5510864257812	1292.580322265625	715.6959228515625	198.0301361083984	1303.19970703125	792.2313232421875	197.0959167480469	1354.1826171875	780.90478515625	245.8119201660156	1024.600952148438	1538.654907226562	464.4918823242188	867.1358032226562	1553.298217773438	321.6523132324219	957.7930908203125	1555.941650390625	302.06396484375	882.2943115234375	1525.25390625	495.5729675292969	809.1719970703125	877.5147094726562	483.9180297851562	1129.5673828125	906.3170776367188	374.5489807128906	877.0711059570312	890.1632690429688	355.2681579589844	882.4218139648438	459.5074462890625	266.9544982910156	842.3387451171875	580.2102661132812	333.8086547851562	953.092529296875	32.27146148681641	193.7419128417969	908.1563720703125	232.7749328613281	232.0297088623047	969.2343139648438	67.43277740478516	-18.47581481933594	1020.397094726562	41.50461959838867	37.82007217407227	916.246337890625	49.01053619384766	73.82438659667969	1018.857299804688	16.26736640930176	219.3483734130859	1165.470336914062	459.6077270507812	604.035888671875	1143.40234375	65.13407135009766	831.564453125	1157.179443359375	339.3206787109375	642.7247314453125	1113.364624023438	32.61338043212891	638.0057983398438	1065.574096679688	36.70074462890625	689.4281616210938	1174.90478515625	31.30878067016602	736.2294921875	1089.296630859375	76.67216491699219	880.2662353515625	1178.205932617188	916.1505126953125	505.6546630859375	1191.954833984375	704.4956665039062	498.5216064453125	
158	1.57	1059.089233398438	964.6298828125	573.624755859375	888.4171142578125	934.3287353515625	554.570068359375	982.6258544921875	1017.06982421875	547.935791015625	967.0291137695312	1181.73681640625	295.9457702636719	986.1632690429688	1132.343994140625	561.4806518554688	949.2778930664062	1374.576538085938	511.2706909179688	954.6504516601562	1282.905517578125	355.3476867675781	1039.717529296875	1245.476684570312	561.8968505859375	851.4095458984375	1329.48828125	537.1482543945312	791.2925415039062	1326.254516601562	447.9847412109375	735.0482177734375	1207.677978515625	500.3599243164062	750.1734008789062	1007.378845214844	535.0169067382812	825.0224609375	1009.439086914062	575.934814453125	786.7449951171875	781.0914306640625	469.3838500976562	753.4509887695312	766.83740234375	532.4171752929688	749.994873046875	900.7871704101562	540.7177124023438	821.5140380859375	597.6264038085938	479.8142395019531	773.585205078125	680.03125	534.71533203125	776.8607788085938	678.3062133789062	468.7113342285156	1103.363159179688	1360.7392578125	433.7817993164062	1174.678100585938	1309.738647460938	437.2281494140625	1278.060424804688	1061.012573242188	428.1135559082031	1194.680297851562	1029.455444335938	460.6903686523438	1260.4638671875	879.8953857421875	261.0677490234375	1335.102905273438	871.9616088867188	302.5858154296875	1302.028442382812	1006.165588378906	389.4125366210938	1287.289184570312	715.3555297851562	188.2261505126953	1298.446044921875	791.8611450195312	187.5994415283203	1349.399536132812	780.0147094726562	236.2075805664062	1022.510620117188	1538.860717773438	454.2344055175781	864.097412109375	1553.097412109375	312.4097290039062	954.5932006835938	1555.768188476562	292.1926879882812	880.4315795898438	1525.395874023438	486.2684936523438	806.8995361328125	879.0813598632812	473.4249267578125	1127.605834960938	905.2811279296875	360.9619140625	874.901123046875	890.3425903320312	344.4927368164062	880.5335693359375	460.4566955566406	255.4425659179688	840.3499145507812	581.2205200195312	322.5540161132812	953.5451049804688	33.23577499389648	192.7613220214844	907.5068359375	232.8074645996094	223.8899993896484	970.3052368164062	58.75052642822266	-21.96919822692871	1021.225952148438	35.30531692504883	35.91177368164062	917.210693359375	45.3497314453125	71.66975402832031	1019.487243652344	18.02425575256348	218.7900390625	1165.476196289062	459.4473266601562	592.24365234375	1145.2080078125	69.9205322265625	829.309326171875	1157.710327148438	339.8831481933594	633.5570678710938	1113.514038085938	32.76272201538086	637.8421020507812	1066.040649414062	37.75924682617188	688.9083251953125	1175.906860351562	32.33464431762695	734.9716796875	1091.482055664062	83.71360778808594	877.8082275390625	1177.814819335938	915.1533203125	491.4569396972656	1191.1435546875	703.608154296875	484.9844970703125	
